<svg xmlns="http://www.w3.org/2000/svg" xmlns:xlink="http://www.w3.org/1999/xlink" viewBox="0 0 278 278"><defs><style>.cls-1{fill:url(#radial-gradient);}.cls-2{fill:url(#radial-gradient-2);}.cls-3{fill:#de0027;}.cls-4{fill:#f9ffff;stroke:#000;stroke-miterlimit:10;stroke-width:4px;}</style><radialGradient id="radial-gradient" cx="139" cy="139" r="137" gradientUnits="userSpaceOnUse"><stop offset="0.83" stop-color="#ffb54a"/><stop offset="0.91" stop-color="#ffa14c"/><stop offset="1" stop-color="#ffb54a"/></radialGradient><radialGradient id="radial-gradient-2" cx="139" cy="139" r="115" gradientUnits="userSpaceOnUse"><stop offset="0" stop-color="#ffff9f"/><stop offset="1" stop-color="#feff5e"/></radialGradient></defs><g id="Layer_4" data-name="Layer 4"><circle class="cls-1" cx="139" cy="139" r="137"/><path d="M330,105a135,135,0,1,1-95.46,39.54A134.11,134.11,0,0,1,330,105m0-4A139,139,0,1,0,469,240,139,139,0,0,0,330,101Z" transform="translate(-191 -101)"/><circle class="cls-2" cx="139" cy="139" r="115"/><path d="M330,127a113,113,0,1,1-79.9,33.1A112.23,112.23,0,0,1,330,127m0-4A117,117,0,1,0,447,240,117,117,0,0,0,330,123Z" transform="translate(-191 -101)"/><ellipse class="cls-3" cx="118" cy="69.5" rx="16" ry="14.5"/><path d="M309,158c7.72,0,14,5.61,14,12.5S316.72,183,309,183s-14-5.61-14-12.5,6.28-12.5,14-12.5m0-4c-9.94,0-18,7.39-18,16.5s8.06,16.5,18,16.5,18-7.39,18-16.5S318.94,154,309,154Z" transform="translate(-191 -101)"/><path class="cls-3" d="M244.41,243a13.08,13.08,0,0,1-1.53-.09c-7.94-.89-13.63-8.56-12.67-17.1.89-8,7.18-14,14.62-14a13.08,13.08,0,0,1,1.53.09,13.93,13.93,0,0,1,9.64,5.63A16.05,16.05,0,0,1,259,229C258.14,237,251.85,243,244.41,243Z" transform="translate(-191 -101)"/><path d="M244.83,213.85h0a11.2,11.2,0,0,1,1.3.08c6.85.77,11.75,7.45,10.91,14.89-.78,6.94-6.21,12.18-12.63,12.18a11.34,11.34,0,0,1-1.3-.08,11.91,11.91,0,0,1-8.27-4.84A14.1,14.1,0,0,1,232.2,226c.78-6.94,6.21-12.17,12.63-12.18m0-4c-8.34,0-15.59,6.71-16.61,15.74-1.08,9.64,5.38,18.29,14.44,19.31a17.27,17.27,0,0,0,1.75.1c8.34,0,15.6-6.71,16.61-15.74,1.08-9.64-5.38-18.29-14.44-19.31a17.27,17.27,0,0,0-1.75-.1Z" transform="translate(-191 -101)"/><ellipse class="cls-3" cx="159.5" cy="215" rx="14.5" ry="13"/><path d="M350.5,305c6.89,0,12.5,4.93,12.5,11s-5.61,11-12.5,11S338,322.07,338,316s5.61-11,12.5-11m0-4c-9.11,0-16.5,6.72-16.5,15s7.39,15,16.5,15,16.5-6.72,16.5-15-7.39-15-16.5-15Z" transform="translate(-191 -101)"/><ellipse class="cls-3" cx="217.5" cy="153.5" rx="15.5" ry="14.5"/><path d="M408.5,242c7.44,0,13.5,5.61,13.5,12.5S415.94,267,408.5,267,395,261.39,395,254.5s6.06-12.5,13.5-12.5m0-4c-9.66,0-17.5,7.39-17.5,16.5s7.84,16.5,17.5,16.5,17.5-7.39,17.5-16.5S418.16,238,408.5,238Z" transform="translate(-191 -101)"/><path d="M323.5,226c2.71,0,4.5,1.5,4.5,2.5s-1.79,2.5-4.5,2.5-4.5-1.5-4.5-2.5,1.79-2.5,4.5-2.5m0-7c-6.35,0-11.5,4.25-11.5,9.5s5.15,9.5,11.5,9.5,11.5-4.25,11.5-9.5-5.15-9.5-11.5-9.5Z" transform="translate(-191 -101)"/><path d="M345.59,159.73a5.36,5.36,0,0,1,3.87,2.21c1.68,2.12,1.62,4.46.84,5.08a1.39,1.39,0,0,1-.89.25,5.36,5.36,0,0,1-3.87-2.21c-1.68-2.12-1.62-4.46-.84-5.08a1.39,1.39,0,0,1,.89-.25m0-7a8.33,8.33,0,0,0-5.25,1.77c-4.11,3.27-4.23,9.94-.27,14.91a12.24,12.24,0,0,0,9.34,4.86,8.33,8.33,0,0,0,5.25-1.77c4.11-3.27,4.23-9.94.27-14.91a12.24,12.24,0,0,0-9.34-4.86Z" transform="translate(-191 -101)"/><path d="M391.7,291.22h0a1,1,0,0,1,.35,0,2,2,0,0,1,.95,1.24,5.77,5.77,0,0,1-.15,3.85c-.87,2.36-2.6,3.42-3.55,3.42a1,1,0,0,1-.35,0,2,2,0,0,1-.95-1.24,5.77,5.77,0,0,1,.15-3.85c.87-2.36,2.6-3.42,3.55-3.42m0-7c-4.16,0-8.33,3.14-10.12,8-2.19,6,0,12.26,5,14.07a8,8,0,0,0,2.76.48c4.16,0,8.33-3.14,10.12-8,2.19-6,0-12.26-5-14.07a8,8,0,0,0-2.76-.48Z" transform="translate(-191 -101)"/><path d="M259.09,265.05h.16c1,.17,2.17,2.19,1.71,4.86-.42,2.5-2.06,4-3,4h-.16c-1-.17-2.17-2.19-1.71-4.86.42-2.5,2.06-4,3-4m0-7c-4.68,0-9,4.14-10,9.86-1.06,6.26,2.27,12,7.44,12.93a8.65,8.65,0,0,0,1.34.11c4.68,0,9-4.14,10-9.86,1.06-6.26-2.27-12-7.44-12.93a8.65,8.65,0,0,0-1.34-.11Z" transform="translate(-191 -101)"/><path class="cls-4" d="M277,212c.74.81-1.75,12.07,1.36,14.57,1.91,1.52,5.43,2.07,7.19.45,3.51-3.23,1.45-14.83,2.45-15s4.39,3.91,7.44,2.44c3.35-1.62,4.26-10.83,0-16.18-5.19-6.51-17.18-6.2-22.92-.45-2.92,2.93-6,9-3.14,12.58C271.25,212.74,276.26,211.19,277,212Z" transform="translate(-191 -101)"/><path class="cls-4" d="M353.65,271.05c.74.81-1.75,12.07,1.36,14.57,1.91,1.52,5.43,2.07,7.19.45,3.51-3.23,1.45-14.83,2.45-15s4.39,3.91,7.44,2.44c3.34-1.62,4.25-10.83,0-16.18-5.19-6.51-17.18-6.2-22.92-.45-2.92,2.93-6,9-3.14,12.58C347.9,271.79,352.91,270.24,353.65,271.05Z" transform="translate(-191 -101)"/><path class="cls-4" d="M383.87,171.81c-.37,1-11.5,4.05-12.26,8-.47,2.4.69,5.77,2.94,6.58,4.49,1.6,13.8-5.61,14.43-4.81s-1.42,5.7,1.3,7.72c3,2.21,11.57-1.26,14.32-7.52,3.36-7.62-2.48-18.08-10.24-20.5-3.95-1.23-10.77-1.1-12.6,3.06C380.55,167.06,384.25,170.78,383.87,171.81Z" transform="translate(-191 -101)"/><path class="cls-4" d="M302,317.39c.56-.94,12.05-1.86,13.52-5.57.91-2.27.39-5.8-1.67-7-4.12-2.41-14.6,2.95-15.08,2.06s2.45-5.34.15-7.83c-2.52-2.73-11.6-.9-15.46,4.74-4.71,6.87-.89,18.24,6.28,22,3.66,1.94,10.38,3.07,12.95-.68C304.38,322.67,301.43,318.34,302,317.39Z" transform="translate(-191 -101)"/><path class="cls-3" d="M308.19,278.11a14,14,0,0,1-14.12-13.78,16.31,16.31,0,0,1,16-16.61,14,14,0,0,1,14.12,13.79,16.32,16.32,0,0,1-16,16.6Z" transform="translate(-191 -101)"/><path d="M310.11,245.72v4a12,12,0,0,1,12.12,11.85,14.31,14.31,0,0,1-14,14.54,12.1,12.1,0,0,1-8.09-3c-5.21-4.63-5.39-13-.4-18.57a14,14,0,0,1,10.41-4.79v-4m0,0a18,18,0,0,0-13.4,6.13c-6.47,7.26-6.14,18.11.73,24.22a16,16,0,0,0,10.75,4,18,18,0,0,0,13.4-6.12c6.46-7.26,6.14-18.11-.73-24.23a16.09,16.09,0,0,0-10.75-4Z" transform="translate(-191 -101)"/><path d="M265.5,171c1,0,2.5,1.79,2.5,4.5s-1.5,4.5-2.5,4.5-2.5-1.79-2.5-4.5,1.5-4.5,2.5-4.5m0-7c-5.25,0-9.5,5.15-9.5,11.5s4.25,11.5,9.5,11.5,9.5-5.15,9.5-11.5-4.25-11.5-9.5-11.5Z" transform="translate(-191 -101)"/><circle class="cls-3" cx="163.5" cy="111.5" r="15.5"/><path d="M354.5,199A13.5,13.5,0,1,1,341,212.5,13.52,13.52,0,0,1,354.5,199m0-4A17.5,17.5,0,1,0,372,212.5,17.51,17.51,0,0,0,354.5,195Z" transform="translate(-191 -101)"/><path d="M415.5,214.53a1.15,1.15,0,0,1,.6.14,2.1,2.1,0,0,1,.73,1.37,5.89,5.89,0,0,1-.82,3.77,5,5,0,0,1-3.82,2.79,1.08,1.08,0,0,1-.59-.14,2,2,0,0,1-.73-1.37,5.84,5.84,0,0,1,.81-3.78,5,5,0,0,1,3.82-2.78m0-7c-3.7,0-7.59,2.32-9.88,6.28-3.18,5.5-2.07,12.09,2.48,14.71a8.1,8.1,0,0,0,4.09,1.08c3.7,0,7.59-2.32,9.88-6.29,3.18-5.5,2.07-12.08-2.47-14.71a8.15,8.15,0,0,0-4.1-1.07Z" transform="translate(-191 -101)"/></g></svg>